<?xml version="1.0" encoding="UTF-8"?>
<svg xmlns="http://www.w3.org/2000/svg" width="1340" height="760" viewBox="0 0 1340 760" font-family="Helvetica, Arial, sans-serif">
<defs>
<marker id="arr_445" markerWidth="11" markerHeight="11" refX="8.5" refY="3.2" orient="auto" markerUnits="userSpaceOnUse"><path d="M0,0 L9,3.2 L0,6.4 Z" fill="#445"/></marker>
<marker id="arr_9673A6" markerWidth="11" markerHeight="11" refX="8.5" refY="3.2" orient="auto" markerUnits="userSpaceOnUse"><path d="M0,0 L9,3.2 L0,6.4 Z" fill="#9673A6"/></marker>
<marker id="arr_B85450" markerWidth="11" markerHeight="11" refX="8.5" refY="3.2" orient="auto" markerUnits="userSpaceOnUse"><path d="M0,0 L9,3.2 L0,6.4 Z" fill="#B85450"/></marker>
</defs>
<rect x="0" y="0" width="1340" height="760" fill="#FFFFFF"/>
<text x="40" y="40" font-size="22" font-weight="700" fill="#10202E">20 · Agent Tool Ecosystem</text>
<line x1="40" y1="50" x2="1300" y2="50" stroke="#10202E" stroke-width="1.5"/>
<rect x="640" y="88" width="360" height="472" rx="11" fill="#F3EFF5" stroke="#9673A6" stroke-width="1.6"/>
<path d="M640.0,122.0 L640.0,99.0 A11,11 0 0 1 651.0,88.0 L989.0,88.0 A11,11 0 0 1 1000.0,99.0 L1000.0,122.0 Z" fill="#E1D5E7" stroke="#9673A6" stroke-width="1.6"/>
<text x="654.0" y="112.0" font-size="14.5" font-weight="700" fill="#10202E">_SAFE_TOOL_NAMES — reachable by the LLM</text>
<path d="M260.0,350.0 L300.0,351.0" fill="none" stroke="#445" stroke-width="1.7" marker-end="url(#arr_445)"/>
<path d="M976.0,156.0 L1040.0,156.0" fill="none" stroke="#9673A6" stroke-width="1.7" marker-end="url(#arr_9673A6)"/>
<path d="M590.0,351.0 L620.0,156.0 L664.0,156.0" fill="none" stroke="#9673A6" stroke-width="1.7" marker-end="url(#arr_9673A6)"/>
<path d="M976.0,240.0 L1040.0,240.0" fill="none" stroke="#9673A6" stroke-width="1.7" marker-end="url(#arr_9673A6)"/>
<path d="M590.0,351.0 L620.0,240.0 L664.0,240.0" fill="none" stroke="#9673A6" stroke-width="1.7" marker-end="url(#arr_9673A6)"/>
<path d="M976.0,324.0 L1040.0,324.0" fill="none" stroke="#9673A6" stroke-width="1.7" marker-end="url(#arr_9673A6)"/>
<path d="M590.0,351.0 L620.0,324.0 L664.0,324.0" fill="none" stroke="#9673A6" stroke-width="1.7" marker-end="url(#arr_9673A6)"/>
<path d="M976.0,408.0 L1040.0,408.0" fill="none" stroke="#9673A6" stroke-width="1.7" marker-end="url(#arr_9673A6)"/>
<path d="M590.0,351.0 L620.0,408.0 L664.0,408.0" fill="none" stroke="#9673A6" stroke-width="1.7" marker-end="url(#arr_9673A6)"/>
<path d="M976.0,492.0 L1040.0,492.0" fill="none" stroke="#9673A6" stroke-width="1.7" marker-end="url(#arr_9673A6)"/>
<path d="M590.0,351.0 L620.0,492.0 L664.0,492.0" fill="none" stroke="#9673A6" stroke-width="1.7" marker-end="url(#arr_9673A6)"/>
<path d="M445.0,390.0 L440.0,627.0 L664.0,627.0" fill="none" stroke="#B85450" stroke-width="1.7" stroke-dasharray="6 5" marker-end="url(#arr_B85450)"/>
<path d="M976.0,627.0 L1040.0,627.0" fill="none" stroke="#B85450" stroke-width="1.7" marker-end="url(#arr_B85450)"/>
<rect x="60.0" y="320.0" width="200.0" height="60.0" rx="9" fill="#E1D5E7" stroke="#9673A6" stroke-width="1.6"/>
<text x="160.0" y="353.9" font-size="12.5" font-weight="700" fill="#15202B" text-anchor="middle">AgentCore</text>
<rect x="300.0" y="312.0" width="290.0" height="78.0" rx="9" fill="#E1D5E7" stroke="#9673A6" stroke-width="1.6"/>
<text x="445.0" y="342.4" font-size="9.5" font-weight="400" fill="#15202B" text-anchor="middle">ToolRegistry.run(name, **args)</text>
<text x="445.0" y="353.9" font-size="9.5" font-weight="400" fill="#15202B" text-anchor="middle">never raises · failure → ToolResult.failure</text>
<text x="445.0" y="365.5" font-size="9.5" font-weight="400" fill="#15202B" text-anchor="middle">meta: tool, elapsed_ms</text>
<rect x="664.0" y="128.0" width="312.0" height="56.0" rx="9" fill="#E1D5E7" stroke="#9673A6" stroke-width="1.6"/>
<text x="820.0" y="158.8" font-size="9.0" font-weight="400" fill="#15202B" text-anchor="middle">translate (TranslateTool)</text>
<rect x="1040.0" y="128.0" width="280.0" height="56.0" rx="9" fill="#FFE6CC" stroke="#D79B00" stroke-width="1.6"/>
<text x="1180.0" y="158.9" font-size="9.5" font-weight="400" fill="#15202B" text-anchor="middle">translate_service.translate</text>
<rect x="664.0" y="212.0" width="312.0" height="56.0" rx="9" fill="#E1D5E7" stroke="#9673A6" stroke-width="1.6"/>
<text x="820.0" y="242.8" font-size="9.0" font-weight="400" fill="#15202B" text-anchor="middle">summarize (SummarizeTool)</text>
<rect x="1040.0" y="212.0" width="280.0" height="56.0" rx="9" fill="#FFE6CC" stroke="#D79B00" stroke-width="1.6"/>
<text x="1180.0" y="242.9" font-size="9.5" font-weight="400" fill="#15202B" text-anchor="middle">summary_service.summarize</text>
<rect x="664.0" y="296.0" width="312.0" height="56.0" rx="9" fill="#E1D5E7" stroke="#9673A6" stroke-width="1.6"/>
<text x="820.0" y="326.8" font-size="9.0" font-weight="400" fill="#15202B" text-anchor="middle">chat (ChatTool)  ·  tenancy</text>
<rect x="1040.0" y="296.0" width="280.0" height="56.0" rx="9" fill="#D5E8D4" stroke="#82B366" stroke-width="1.6"/>
<text x="1180.0" y="326.9" font-size="9.5" font-weight="400" fill="#15202B" text-anchor="middle">chat_service.chat</text>
<rect x="664.0" y="380.0" width="312.0" height="56.0" rx="9" fill="#E1D5E7" stroke="#9673A6" stroke-width="1.6"/>
<text x="820.0" y="410.8" font-size="9.0" font-weight="400" fill="#15202B" text-anchor="middle">knowledge_search (KnowledgeSearchTool) · tenancy</text>
<rect x="1040.0" y="380.0" width="280.0" height="56.0" rx="9" fill="#D5E8D4" stroke="#82B366" stroke-width="1.6"/>
<text x="1180.0" y="405.2" font-size="9.5" font-weight="400" fill="#15202B" text-anchor="middle">knowledge composite().retrieve</text>
<text x="1180.0" y="416.7" font-size="9.5" font-weight="400" fill="#15202B" text-anchor="middle">→ retrieve_chunks</text>
<rect x="664.0" y="464.0" width="312.0" height="56.0" rx="9" fill="#E1D5E7" stroke="#9673A6" stroke-width="1.6"/>
<text x="820.0" y="494.8" font-size="9.0" font-weight="400" fill="#15202B" text-anchor="middle">correct (CorrectionTool)</text>
<rect x="1040.0" y="464.0" width="280.0" height="56.0" rx="9" fill="#FFE6CC" stroke="#D79B00" stroke-width="1.6"/>
<text x="1180.0" y="494.9" font-size="9.5" font-weight="400" fill="#15202B" text-anchor="middle">correction_service.correct</text>
<rect x="664.0" y="600.0" width="312.0" height="54.0" rx="9" fill="#F8CECC" stroke="#B85450" stroke-width="1.6"/>
<text x="820.0" y="629.8" font-size="9.0" font-weight="400" fill="#15202B" text-anchor="middle">ocr (OcrTool) → smart_ocr_service.run_ocr_pipeline</text>
<rect x="1040.0" y="600.0" width="280.0" height="54.0" rx="9" fill="#F8CECC" stroke="#B85450" stroke-width="1.6"/>
<text x="1180.0" y="624.1" font-size="9.5" font-weight="400" fill="#15202B" text-anchor="middle">EXCLUDED from _SAFE_TOOL_NAMES</text>
<text x="1180.0" y="635.7" font-size="9.5" font-weight="400" fill="#15202B" text-anchor="middle">(not reachable by the LLM)</text>
<rect x="60.0" y="430.0" width="290.0" height="80.0" rx="9" fill="#F5F5F5" stroke="#999999" stroke-width="1.6"/>
<text x="205.0" y="461.8" font-size="9.0" font-weight="400" fill="#15202B" text-anchor="middle">Tool = ABC (one responsibility) · returns ToolResult.</text>
<text x="205.0" y="472.8" font-size="9.0" font-weight="400" fill="#15202B" text-anchor="middle">Tenancy: AgentCore injects allowed_file_ids for</text>
<text x="205.0" y="483.8" font-size="9.0" font-weight="400" fill="#15202B" text-anchor="middle">chat &amp; knowledge_search (LLM never chooses it).</text>
</svg>