<?xml version="1.0" encoding="UTF-8"?>
<svg xmlns="http://www.w3.org/2000/svg" width="1340" height="800" viewBox="0 0 1340 800" font-family="Helvetica, Arial, sans-serif">
<defs>
<marker id="arr_445" markerWidth="11" markerHeight="11" refX="8.5" refY="3.2" orient="auto" markerUnits="userSpaceOnUse"><path d="M0,0 L9,3.2 L0,6.4 Z" fill="#445"/></marker>
<marker id="arr_9673A6" markerWidth="11" markerHeight="11" refX="8.5" refY="3.2" orient="auto" markerUnits="userSpaceOnUse"><path d="M0,0 L9,3.2 L0,6.4 Z" fill="#9673A6"/></marker>
<marker id="arr_B85450" markerWidth="11" markerHeight="11" refX="8.5" refY="3.2" orient="auto" markerUnits="userSpaceOnUse"><path d="M0,0 L9,3.2 L0,6.4 Z" fill="#B85450"/></marker>
<marker id="arr_D6B656" markerWidth="11" markerHeight="11" refX="8.5" refY="3.2" orient="auto" markerUnits="userSpaceOnUse"><path d="M0,0 L9,3.2 L0,6.4 Z" fill="#D6B656"/></marker>
</defs>
<rect x="0" y="0" width="1340" height="800" fill="#FFFFFF"/>
<text x="40" y="40" font-size="22" font-weight="700" fill="#10202E">5 · Agent Architecture  (tool orchestration — no skill layer)</text>
<line x1="40" y1="50" x2="1300" y2="50" stroke="#10202E" stroke-width="1.5"/>
<rect x="400" y="96" width="600" height="470" rx="11" fill="#F3EFF5" stroke="#9673A6" stroke-width="1.6"/>
<path d="M400.0,130.0 L400.0,107.0 A11,11 0 0 1 411.0,96.0 L989.0,96.0 A11,11 0 0 1 1000.0,107.0 L1000.0,130.0 Z" fill="#E1D5E7" stroke="#9673A6" stroke-width="1.6"/>
<text x="414.0" y="120.0" font-size="14.5" font-weight="700" fill="#10202E">AgentCore.run()  —  reasoning loop</text>
<rect x="400" y="590" width="600" height="180" rx="11" fill="#F3EFF5" stroke="#9673A6" stroke-width="1.6"/>
<path d="M400.0,624.0 L400.0,601.0 A11,11 0 0 1 411.0,590.0 L989.0,590.0 A11,11 0 0 1 1000.0,601.0 L1000.0,624.0 Z" fill="#E1D5E7" stroke="#9673A6" stroke-width="1.6"/>
<text x="414.0" y="614.0" font-size="14.5" font-weight="700" fill="#10202E">Reachable tools — _SAFE_TOOL_NAMES  (no skill-selection layer)</text>
<rect x="1030" y="96" width="270" height="180" rx="11" fill="#FFFAEB" stroke="#D6B656" stroke-width="1.6"/>
<path d="M1030.0,130.0 L1030.0,107.0 A11,11 0 0 1 1041.0,96.0 L1289.0,96.0 A11,11 0 0 1 1300.0,107.0 L1300.0,130.0 Z" fill="#FFF2CC" stroke="#D6B656" stroke-width="1.6"/>
<text x="1044.0" y="120.0" font-size="14.5" font-weight="700" fill="#10202E">FallbackProvider (priority order)</text>
<rect x="1030" y="430" width="270" height="170" rx="11" fill="#FCECEB" stroke="#B85450" stroke-width="1.6"/>
<path d="M1030.0,464.0 L1030.0,441.0 A11,11 0 0 1 1041.0,430.0 L1289.0,430.0 A11,11 0 0 1 1300.0,441.0 L1300.0,464.0 Z" fill="#F8CECC" stroke="#B85450" stroke-width="1.6"/>
<text x="1044.0" y="454.0" font-size="14.5" font-weight="700" fill="#10202E">OCR is NOT an agent LLM tool</text>
<path d="M164.5,164.0 L189.1,210.0" fill="none" stroke="#445" stroke-width="1.7" marker-end="url(#arr_445)"/>
<rect x="115.8" y="178.0" width="122.0" height="16" rx="3" fill="#FFFFFF" stroke="#445" stroke-width="0.8" opacity="0.95"/>
<text x="176.8" y="189.5" font-size="10.5" fill="#243B4A" text-anchor="middle">POST /api/agent/run</text>
<path d="M550.0,190.0 L550.0,220.0" fill="none" stroke="#445" stroke-width="1.7" marker-end="url(#arr_445)"/>
<path d="M550.0,266.0 L550.0,300.0" fill="none" stroke="#445" stroke-width="1.7" marker-end="url(#arr_445)"/>
<path d="M670.0,327.1 L700.0,328.1" fill="none" stroke="#445" stroke-width="1.7" marker-end="url(#arr_445)"/>
<path d="M785.0,366.0 L845.0,430.0" fill="none" stroke="#445" stroke-width="1.7" marker-end="url(#arr_445)"/>
<rect x="757.0" y="389.0" width="116.0" height="16" rx="3" fill="#FFFFFF" stroke="#445" stroke-width="0.8" opacity="0.95"/>
<text x="815.0" y="400.5" font-size="10.5" fill="#243B4A" text-anchor="middle">{final} / non-JSON</text>
<path d="M700.0,331.0 L670.0,415.0" fill="none" stroke="#445" stroke-width="1.7" marker-end="url(#arr_445)"/>
<rect x="630.0" y="364.0" width="110.0" height="16" rx="3" fill="#FFFFFF" stroke="#445" stroke-width="0.8" opacity="0.95"/>
<text x="685.0" y="375.5" font-size="10.5" fill="#243B4A" text-anchor="middle">{tool, arguments}</text>
<path d="M430.0,415.0 L410.0,415.0 L410.0,243.0 L430.0,243.0" fill="none" stroke="#445" stroke-width="1.7" marker-end="url(#arr_445)"/>
<rect x="307.0" y="320.0" width="206.0" height="16" rx="3" fill="#FFFFFF" stroke="#445" stroke-width="0.8" opacity="0.95"/>
<text x="410.0" y="331.5" font-size="10.5" fill="#243B4A" text-anchor="middle">loop ≤ max_steps (1–6, default 4)</text>
<path d="M670.0,415.0 L690.0,415.0 L845.0,415.0 L845.0,250.0" fill="none" stroke="#445" stroke-width="1.7" stroke-dasharray="6 5" marker-end="url(#arr_445)"/>
<rect x="791.0" y="406.0" width="98.0" height="16" rx="3" fill="#FFFFFF" stroke="#445" stroke-width="0.8" opacity="0.95"/>
<text x="840.0" y="417.5" font-size="10.5" fill="#243B4A" text-anchor="middle">steps exhausted</text>
<path d="M845.0,250.0 L845.0,415.0 L845.0,430.0" fill="none" stroke="#445" stroke-width="1.7" marker-end="url(#arr_445)"/>
<path d="M360.0,211.9 L430.0,165.0" fill="none" stroke="#445" stroke-width="1.7" marker-end="url(#arr_445)"/>
<path d="M785.0,366.0 L785.0,580.0 L700.0,590.0" fill="none" stroke="#9673A6" stroke-width="1.7" stroke-dasharray="6 5" marker-end="url(#arr_9673A6)"/>
<rect x="688.0" y="506.8" width="194.0" height="16" rx="3" fill="#FFFFFF" stroke="#9673A6" stroke-width="0.8" opacity="0.95"/>
<text x="785.0" y="518.3" font-size="10.5" fill="#243B4A" text-anchor="middle">dispatch via ToolRegistry.run()</text>
<path d="M1165.0,176.0 L1165.0,186.0" fill="none" stroke="#445" stroke-width="1.7" marker-end="url(#arr_445)"/>
<path d="M1165.0,222.0 L1165.0,232.0" fill="none" stroke="#445" stroke-width="1.7" marker-end="url(#arr_445)"/>
<path d="M670.0,243.0 L1010.0,243.0 L1030.0,186.0" fill="none" stroke="#D6B656" stroke-width="1.7" marker-end="url(#arr_D6B656)"/>
<rect x="857.2" y="234.0" width="26.0" height="16" rx="3" fill="#FFFFFF" stroke="#D6B656" stroke-width="0.8" opacity="0.95"/>
<text x="870.2" y="245.5" font-size="10.5" fill="#243B4A" text-anchor="middle">via</text>
<path d="M592.0,660.0 L1165.0,660.0 L1165.0,390.0" fill="none" stroke="#B85450" stroke-width="1.7" stroke-dasharray="6 5" marker-end="url(#arr_B85450)"/>
<path d="M696.0,632.0 L696.0,600.0 L1165.0,600.0 L1165.0,390.0" fill="none" stroke="#B85450" stroke-width="1.7" stroke-dasharray="6 5" marker-end="url(#arr_B85450)"/>
<path d="M210.0,288.0 L210.0,640.0 L210.0,760.0 L1015.0,515.0 L1030.0,515.0" fill="none" stroke="#B85450" stroke-width="1.7" stroke-dasharray="6 5" marker-end="url(#arr_B85450)"/>
<rect x="314.9" y="695.0" width="158.0" height="16" rx="3" fill="#FFFFFF" stroke="#B85450" stroke-width="0.8" opacity="0.95"/>
<text x="393.9" y="706.5" font-size="10.5" fill="#243B4A" text-anchor="middle">upload path, NOT the loop</text>
<path d="M845.0,486.0 L845.0,540.0 L1030.0,668.0" fill="none" stroke="#445" stroke-width="1.7" marker-end="url(#arr_445)"/>
<rect x="60.0" y="110.0" width="180.0" height="54.0" rx="9" fill="#DAE8FC" stroke="#6C8EBF" stroke-width="1.6"/>
<text x="150.0" y="140.9" font-size="12.5" font-weight="700" fill="#15202B" text-anchor="middle">User · /agent</text>
<rect x="60.0" y="210.0" width="300.0" height="78.0" rx="9" fill="#D4E1F5" stroke="#3F61A8" stroke-width="1.6"/>
<text x="210.0" y="239.9" font-size="10.0" font-weight="400" fill="#15202B" text-anchor="middle">agent_bp.agent_run</text>
<text x="210.0" y="252.1" font-size="10.0" font-weight="400" fill="#15202B" text-anchor="middle">ownership · lazy session · load history ·</text>
<text x="210.0" y="264.3" font-size="10.0" font-weight="400" fill="#15202B" text-anchor="middle">inject scoped doc context · set allowed_file_ids</text>
<rect x="430.0" y="140.0" width="240.0" height="50.0" rx="9" fill="#E1D5E7" stroke="#9673A6" stroke-width="1.6"/>
<text x="550.0" y="161.8" font-size="10.5" font-weight="400" fill="#15202B" text-anchor="middle">Planning pass (optional)</text>
<text x="550.0" y="174.7" font-size="10.5" font-weight="400" fill="#15202B" text-anchor="middle">1–3 sentence advisory plan</text>
<rect x="430.0" y="220.0" width="240.0" height="46.0" rx="9" fill="#E1D5E7" stroke="#9673A6" stroke-width="1.6"/>
<text x="550.0" y="246.4" font-size="11.0" font-weight="400" fill="#15202B" text-anchor="middle">Provider.complete(messages)</text>
<rect x="430.0" y="300.0" width="240.0" height="46.0" rx="9" fill="#E1D5E7" stroke="#9673A6" stroke-width="1.6"/>
<text x="550.0" y="319.9" font-size="10.5" font-weight="400" fill="#15202B" text-anchor="middle">_extract_json(raw)</text>
<text x="550.0" y="332.7" font-size="10.5" font-weight="400" fill="#15202B" text-anchor="middle">one JSON action</text>
<polygon points="785.0,296.0 870.0,331.0 785.0,366.0 700.0,331.0" fill="#FFF2CC" stroke="#D6B656" stroke-width="1.6"/>
<text x="785.0" y="334.4" font-size="11.0" font-weight="400" fill="#15202B" text-anchor="middle">action type</text>
<rect x="430.0" y="392.0" width="240.0" height="46.0" rx="9" fill="#E1D5E7" stroke="#9673A6" stroke-width="1.6"/>
<text x="550.0" y="411.9" font-size="10.5" font-weight="400" fill="#15202B" text-anchor="middle">Append tool observation</text>
<text x="550.0" y="424.7" font-size="10.5" font-weight="400" fill="#15202B" text-anchor="middle">as user turn</text>
<rect x="720.0" y="430.0" width="250.0" height="56.0" rx="9" fill="#E1D5E7" stroke="#9673A6" stroke-width="1.6"/>
<text x="845.0" y="461.4" font-size="11.0" font-weight="700" fill="#15202B" text-anchor="middle">Final answer + citations (≤5)</text>
<rect x="720.0" y="200.0" width="250.0" height="50.0" rx="9" fill="#E1D5E7" stroke="#9673A6" stroke-width="1.6"/>
<text x="845.0" y="221.8" font-size="10.5" font-weight="400" fill="#15202B" text-anchor="middle">Synthesis pass</text>
<text x="845.0" y="234.7" font-size="10.5" font-weight="400" fill="#15202B" text-anchor="middle">(on step exhaustion)</text>
<rect x="424.0" y="632.0" width="168.0" height="56.0" rx="9" fill="#E1D5E7" stroke="#9673A6" stroke-width="1.6"/>
<text x="508.0" y="657.1" font-size="9.5" font-weight="400" fill="#15202B" text-anchor="middle">chat → chat_service.chat</text>
<text x="508.0" y="668.7" font-size="9.5" font-weight="400" fill="#15202B" text-anchor="middle">(RAG)</text>
<rect x="612.0" y="632.0" width="168.0" height="56.0" rx="9" fill="#E1D5E7" stroke="#9673A6" stroke-width="1.6"/>
<text x="696.0" y="651.4" font-size="9.5" font-weight="400" fill="#15202B" text-anchor="middle">knowledge_search →</text>
<text x="696.0" y="662.9" font-size="9.5" font-weight="400" fill="#15202B" text-anchor="middle">DocumentKnowledge →</text>
<text x="696.0" y="674.5" font-size="9.5" font-weight="400" fill="#15202B" text-anchor="middle">retrieve_chunks</text>
<rect x="800.0" y="632.0" width="168.0" height="56.0" rx="9" fill="#E1D5E7" stroke="#9673A6" stroke-width="1.6"/>
<text x="884.0" y="662.9" font-size="9.5" font-weight="400" fill="#15202B" text-anchor="middle">summarize → summary_service</text>
<rect x="424.0" y="700.0" width="168.0" height="56.0" rx="9" fill="#E1D5E7" stroke="#9673A6" stroke-width="1.6"/>
<text x="508.0" y="730.9" font-size="9.5" font-weight="400" fill="#15202B" text-anchor="middle">translate → translate_service</text>
<rect x="612.0" y="700.0" width="168.0" height="56.0" rx="9" fill="#E1D5E7" stroke="#9673A6" stroke-width="1.6"/>
<text x="696.0" y="730.9" font-size="9.5" font-weight="400" fill="#15202B" text-anchor="middle">correct → correction_service</text>
<rect x="1054.0" y="140.0" width="222.0" height="36.0" rx="9" fill="#FFF2CC" stroke="#D6B656" stroke-width="1.6"/>
<text x="1165.0" y="161.9" font-size="12.5" font-weight="400" fill="#15202B" text-anchor="middle">Groq</text>
<rect x="1054.0" y="186.0" width="222.0" height="36.0" rx="9" fill="#FFF2CC" stroke="#D6B656" stroke-width="1.6"/>
<text x="1165.0" y="207.9" font-size="12.5" font-weight="400" fill="#15202B" text-anchor="middle">Gemini</text>
<rect x="1054.0" y="232.0" width="222.0" height="36.0" rx="9" fill="#FFF2CC" stroke="#D6B656" stroke-width="1.6"/>
<text x="1165.0" y="253.9" font-size="12.5" font-weight="400" fill="#15202B" text-anchor="middle">Local Qwen</text>
<rect x="1030.0" y="320.0" width="270.0" height="70.0" rx="9" fill="#F8CECC" stroke="#B85450" stroke-width="1.6"/>
<text x="1165.0" y="345.4" font-size="10.5" font-weight="400" fill="#15202B" text-anchor="middle">Tenancy scope</text>
<text x="1165.0" y="358.3" font-size="10.5" font-weight="400" fill="#15202B" text-anchor="middle">allowed_file_ids injected by server</text>
<text x="1165.0" y="371.1" font-size="10.5" font-weight="400" fill="#15202B" text-anchor="middle">(LLM never chooses it)</text>
<rect x="1054.0" y="472.0" width="222.0" height="56.0" rx="9" fill="#F8CECC" stroke="#B85450" stroke-width="1.6"/>
<text x="1165.0" y="497.0" font-size="10.0" font-weight="400" fill="#15202B" text-anchor="middle">OcrTool exists in the full registry</text>
<text x="1165.0" y="509.2" font-size="10.0" font-weight="400" fill="#15202B" text-anchor="middle">but is EXCLUDED from the safe set</text>
<rect x="1054.0" y="536.0" width="222.0" height="56.0" rx="9" fill="#F8CECC" stroke="#B85450" stroke-width="1.6"/>
<text x="1165.0" y="555.4" font-size="9.5" font-weight="400" fill="#15202B" text-anchor="middle">OCR runs via agent upload →</text>
<text x="1165.0" y="566.9" font-size="9.5" font-weight="400" fill="#15202B" text-anchor="middle">/api/ocr/all → /api/agent/ingest</text>
<text x="1165.0" y="578.5" font-size="9.5" font-weight="400" fill="#15202B" text-anchor="middle">(recorded as a session turn)</text>
<rect x="1030.0" y="640.0" width="270.0" height="56.0" rx="9" fill="#DAE8FC" stroke="#6C8EBF" stroke-width="1.6"/>
<text x="1165.0" y="664.9" font-size="10.5" font-weight="400" fill="#15202B" text-anchor="middle">results.py → deep-links</text>
<text x="1165.0" y="677.7" font-size="10.5" font-weight="400" fill="#15202B" text-anchor="middle">#ocr / #summarize / #chat</text>
</svg>