<?xml version="1.0" encoding="UTF-8"?>
<svg xmlns="http://www.w3.org/2000/svg" width="1500" height="720" viewBox="0 0 1500 720" font-family="Helvetica, Arial, sans-serif">
<defs>
<marker id="arr_445" markerWidth="11" markerHeight="11" refX="8.5" refY="3.2" orient="auto" markerUnits="userSpaceOnUse"><path d="M0,0 L9,3.2 L0,6.4 Z" fill="#445"/></marker>
</defs>
<rect x="0" y="0" width="1500" height="720" fill="#FFFFFF"/>
<text x="40" y="40" font-size="22" font-weight="700" fill="#10202E">Context Diagram (Level 0)</text>
<line x1="40" y1="50" x2="1460" y2="50" stroke="#10202E" stroke-width="1.5"/>
<path d="M260.0,207.0 L560.0,353.0" fill="none" stroke="#445" stroke-width="1.7" marker-end="url(#arr_445)" marker-start="url(#arr_445)"/>
<rect x="286.0" y="271.0" width="248.0" height="16" rx="3" fill="#FFFFFF" stroke="#445" stroke-width="0.8" opacity="0.95"/>
<text x="410.0" y="282.5" font-size="10.5" fill="#243B4A" text-anchor="middle">requests &amp; uploads  /  results &amp; answers</text>
<path d="M260.0,509.0 L560.0,353.0" fill="none" stroke="#445" stroke-width="1.7" marker-end="url(#arr_445)" marker-start="url(#arr_445)"/>
<rect x="292.0" y="422.0" width="236.0" height="16" rx="3" fill="#FFFFFF" stroke="#445" stroke-width="0.8" opacity="0.95"/>
<text x="410.0" y="433.5" font-size="10.5" fill="#243B4A" text-anchor="middle">admin actions  /  users · logs · files</text>
<path d="M940.0,353.0 L1240.0,129.0" fill="none" stroke="#445" stroke-width="1.7" marker-end="url(#arr_445)" marker-start="url(#arr_445)"/>
<rect x="1011.0" y="232.0" width="158.0" height="16" rx="3" fill="#FFFFFF" stroke="#445" stroke-width="0.8" opacity="0.95"/>
<text x="1090.0" y="243.5" font-size="10.5" fill="#243B4A" text-anchor="middle">agent prompt / completion</text>
<path d="M940.0,353.0 L1240.0,225.0" fill="none" stroke="#445" stroke-width="1.7" marker-end="url(#arr_445)" marker-start="url(#arr_445)"/>
<rect x="1005.0" y="280.0" width="170.0" height="16" rx="3" fill="#FFFFFF" stroke="#445" stroke-width="0.8" opacity="0.95"/>
<text x="1090.0" y="291.5" font-size="10.5" fill="#243B4A" text-anchor="middle">agent fallback / completion</text>
<path d="M940.0,353.0 L1240.0,356.0" fill="none" stroke="#445" stroke-width="1.7" marker-end="url(#arr_445)" marker-start="url(#arr_445)"/>
<rect x="993.0" y="345.5" width="194.0" height="16" rx="3" fill="#FFFFFF" stroke="#445" stroke-width="0.8" opacity="0.95"/>
<text x="1090.0" y="357.0" font-size="10.5" fill="#243B4A" text-anchor="middle">OCR request / structured result</text>
<path d="M940.0,353.0 L1240.0,506.0" fill="none" stroke="#445" stroke-width="1.7" marker-end="url(#arr_445)" marker-start="url(#arr_445)"/>
<rect x="1005.0" y="420.5" width="170.0" height="16" rx="3" fill="#FFFFFF" stroke="#445" stroke-width="0.8" opacity="0.95"/>
<text x="1090.0" y="432.0" font-size="10.5" fill="#243B4A" text-anchor="middle">text / translation (online)</text>
<rect x="560.0" y="294.0" width="380.0" height="118.0" rx="9" fill="#D4E1F5" stroke="#3F61A8" stroke-width="1.6"/>
<text x="750.0" y="348.8" font-size="14.0" font-weight="700" fill="#15202B" text-anchor="middle">0</text>
<text x="750.0" y="365.9" font-size="14.0" font-weight="700" fill="#15202B" text-anchor="middle">SmartDocs-Agent Platform</text>
<rect x="90.0" y="168.0" width="170.0" height="78.0" rx="0" fill="#DAE8FC" stroke="#6C8EBF" stroke-width="1.6"/>
<text x="175.0" y="210.9" font-size="12.5" font-weight="700" fill="#15202B" text-anchor="middle">User</text>
<rect x="90.0" y="470.0" width="170.0" height="78.0" rx="0" fill="#D4E1F5" stroke="#3F61A8" stroke-width="1.6"/>
<text x="175.0" y="512.9" font-size="12.5" font-weight="700" fill="#15202B" text-anchor="middle">Admin</text>
<rect x="1240.0" y="100.0" width="180.0" height="58.0" rx="0" fill="#FFF2CC" stroke="#D6B656" stroke-width="1.6"/>
<text x="1330.0" y="132.9" font-size="12.5" font-weight="400" fill="#15202B" text-anchor="middle">Groq API</text>
<rect x="1240.0" y="196.0" width="180.0" height="58.0" rx="0" fill="#FFF2CC" stroke="#D6B656" stroke-width="1.6"/>
<text x="1330.0" y="228.9" font-size="12.5" font-weight="400" fill="#15202B" text-anchor="middle">Gemini API</text>
<rect x="1240.0" y="320.0" width="180.0" height="72.0" rx="0" fill="#B0E3E6" stroke="#0E8088" stroke-width="1.6"/>
<text x="1330.0" y="352.9" font-size="10.5" font-weight="400" fill="#15202B" text-anchor="middle">GLM-OCR</text>
<text x="1330.0" y="365.7" font-size="10.5" font-weight="400" fill="#15202B" text-anchor="middle">MLX server :8080</text>
<rect x="1240.0" y="470.0" width="180.0" height="72.0" rx="0" fill="#FFE6CC" stroke="#D79B00" stroke-width="1.6"/>
<text x="1330.0" y="502.9" font-size="10.5" font-weight="400" fill="#15202B" text-anchor="middle">Online Translation</text>
<text x="1330.0" y="515.7" font-size="10.5" font-weight="400" fill="#15202B" text-anchor="middle">(Google)</text>
<rect x="90.0" y="600.0" width="560.0" height="62.0" rx="9" fill="#F5F5F5" stroke="#999999" stroke-width="1.6"/>
<text x="370.0" y="628.3" font-size="9.0" font-weight="400" fill="#15202B" text-anchor="middle">Notation: rounded box = system process (0) · rectangle = external entity.</text>
<text x="370.0" y="639.3" font-size="9.0" font-weight="400" fill="#15202B" text-anchor="middle">Level-0 context: the platform as a single process with its external interactors.</text>
</svg>