<?xml version="1.0" encoding="UTF-8"?>
<svg xmlns="http://www.w3.org/2000/svg" width="1400" height="770" viewBox="0 0 1400 770" font-family="Helvetica, Arial, sans-serif">
<defs>
<marker id="arr_33475B" markerWidth="11" markerHeight="11" refX="8.5" refY="3.2" orient="auto" markerUnits="userSpaceOnUse"><path d="M0,0 L9,3.2 L0,6.4 Z" fill="#33475B"/></marker>
<marker id="arr_445" markerWidth="11" markerHeight="11" refX="8.5" refY="3.2" orient="auto" markerUnits="userSpaceOnUse"><path d="M0,0 L9,3.2 L0,6.4 Z" fill="#445"/></marker>
<marker id="arr_5A5A5A" markerWidth="11" markerHeight="11" refX="8.5" refY="3.2" orient="auto" markerUnits="userSpaceOnUse"><path d="M0,0 L9,3.2 L0,6.4 Z" fill="#5A5A5A"/></marker>
<marker id="arr_8A98A8" markerWidth="11" markerHeight="11" refX="8.5" refY="3.2" orient="auto" markerUnits="userSpaceOnUse"><path d="M0,0 L9,3.2 L0,6.4 Z" fill="#8A98A8"/></marker>
</defs>
<rect x="0" y="0" width="1400" height="770" fill="#FFFFFF"/>
<text x="40" y="40" font-size="22" font-weight="700" fill="#10202E">12 · Chat tài liệu — Sơ đồ tuần tự</text>
<line x1="40" y1="50" x2="1360" y2="50" stroke="#10202E" stroke-width="1.5"/>
<rect x="560.0" y="332.0" width="355.0" height="110.0" rx="3" fill="none" stroke="#5B6B7B" stroke-width="1.3"/>
<path d="M560.0,332.0 h145.2 l-8,9 h-137.2 z" fill="#E8EEF5" stroke="#5B6B7B" stroke-width="1.0"/>
<text x="566.0" y="345.0" font-size="10.5" font-weight="700" fill="#243B4A">alt  [mode != general]</text>
<line x1="120.0" y1="112.0" x2="120.0" y2="740.0" stroke="#6C8EBF" stroke-width="1.3" stroke-dasharray="5 5"/>
<rect x="40.0" y="66.0" width="160.0" height="46.0" rx="9" fill="#DAE8FC" stroke="#6C8EBF" stroke-width="1.6"/>
<text x="120.0" y="92.6" font-size="12" font-weight="700" fill="#15202B" text-anchor="middle">Người dùng (SPA)</text>
<line x1="360.0" y1="112.0" x2="360.0" y2="740.0" stroke="#3F61A8" stroke-width="1.3" stroke-dasharray="5 5"/>
<rect x="280.0" y="66.0" width="160.0" height="46.0" rx="9" fill="#D4E1F5" stroke="#3F61A8" stroke-width="1.6"/>
<text x="360.0" y="92.6" font-size="12" font-weight="700" fill="#15202B" text-anchor="middle">chat_bp.py</text>
<line x1="620.0" y1="112.0" x2="620.0" y2="740.0" stroke="#82B366" stroke-width="1.3" stroke-dasharray="5 5"/>
<rect x="540.0" y="66.0" width="160.0" height="46.0" rx="9" fill="#D5E8D4" stroke="#82B366" stroke-width="1.6"/>
<text x="620.0" y="92.6" font-size="12" font-weight="700" fill="#15202B" text-anchor="middle">chat_service.py</text>
<line x1="850.0" y1="112.0" x2="850.0" y2="740.0" stroke="#82B366" stroke-width="1.3" stroke-dasharray="5 5"/>
<rect x="770.0" y="66.0" width="160.0" height="46.0" rx="9" fill="#D5E8D4" stroke="#82B366" stroke-width="1.6"/>
<text x="850.0" y="92.6" font-size="12" font-weight="700" fill="#15202B" text-anchor="middle">Chỉ mục trong bộ nhớ</text>
<line x1="1060.0" y1="112.0" x2="1060.0" y2="740.0" stroke="#82B366" stroke-width="1.3" stroke-dasharray="5 5"/>
<rect x="980.0" y="66.0" width="160.0" height="46.0" rx="9" fill="#D5E8D4" stroke="#82B366" stroke-width="1.6"/>
<text x="1060.0" y="92.6" font-size="12" font-weight="700" fill="#15202B" text-anchor="middle">Model chat Qwen</text>
<line x1="1280.0" y1="112.0" x2="1280.0" y2="740.0" stroke="#5A5A5A" stroke-width="1.3" stroke-dasharray="5 5"/>
<rect x="1200.0" y="66.0" width="160.0" height="46.0" rx="9" fill="#EDEDED" stroke="#5A5A5A" stroke-width="1.6"/>
<text x="1280.0" y="92.6" font-size="12" font-weight="700" fill="#15202B" text-anchor="middle">chat_messages (CSDL)</text>
<line x1="120.0" y1="150.0" x2="360.0" y2="150.0" stroke="#33475B" stroke-width="1.6" marker-end="url(#arr_33475B)"/>
<text x="240.0" y="132.0" font-size="10.5" fill="#243B4A" text-anchor="middle">POST /api/chat/send</text>
<text x="240.0" y="144.0" font-size="10.5" fill="#243B4A" text-anchor="middle">{query, file_id, mode, conversation_id}</text>
<path d="M360.0,196.0 h26 v18 h-26" fill="none" stroke="#33475B" stroke-width="1.6" marker-end="url(#arr_33475B)"/>
<text x="394.0" y="197.0" font-size="10.5" fill="#243B4A">kiểm tra sở hữu · nạp lịch sử phía server</text>
<line x1="360.0" y1="250.0" x2="1280.0" y2="250.0" stroke="#5A5A5A" stroke-width="1.6" marker-end="url(#arr_5A5A5A)"/>
<text x="820.0" y="244.0" font-size="10.5" fill="#243B4A" text-anchor="middle">add_message(lượt người dùng) — lưu trước</text>
<line x1="360.0" y1="300.0" x2="620.0" y2="300.0" stroke="#33475B" stroke-width="1.6" marker-end="url(#arr_33475B)"/>
<text x="490.0" y="282.0" font-size="10.5" fill="#243B4A" text-anchor="middle">chat(query, file_id, mode, history,</text>
<text x="490.0" y="294.0" font-size="10.5" fill="#243B4A" text-anchor="middle">allowed_file_ids)</text>
<line x1="620.0" y1="378.0" x2="850.0" y2="378.0" stroke="#33475B" stroke-width="1.6" marker-end="url(#arr_33475B)"/>
<text x="735.0" y="360.0" font-size="10.5" fill="#243B4A" text-anchor="middle">retrieve_chunks (cosine/IP · top_k=5 ·</text>
<text x="735.0" y="372.0" font-size="10.5" fill="#243B4A" text-anchor="middle">theo phạm vi)</text>
<line x1="850.0" y1="420.0" x2="620.0" y2="420.0" stroke="#8A98A8" stroke-width="1.6" stroke-dasharray="6 4" marker-end="url(#arr_8A98A8)"/>
<text x="735.0" y="414.0" font-size="10.5" fill="#243B4A" text-anchor="middle">đã xếp hạng (score, chunk, file_id)</text>
<path d="M620.0,458.0 h26 v18 h-26" fill="none" stroke="#33475B" stroke-width="1.6" marker-end="url(#arr_33475B)"/>
<text x="654.0" y="459.0" font-size="10.5" fill="#243B4A">dựng prompt bám ngữ cảnh + vừa ngân sách</text>
<text x="654.0" y="471.0" font-size="10.5" fill="#243B4A">token</text>
<line x1="620.0" y1="512.0" x2="1060.0" y2="512.0" stroke="#33475B" stroke-width="1.6" marker-end="url(#arr_33475B)"/>
<text x="840.0" y="506.0" font-size="10.5" fill="#243B4A" text-anchor="middle">sinh trả lời (hủy được · dự phòng MPS→CPU)</text>
<line x1="1060.0" y1="558.0" x2="620.0" y2="558.0" stroke="#8A98A8" stroke-width="1.6" stroke-dasharray="6 4" marker-end="url(#arr_8A98A8)"/>
<text x="840.0" y="552.0" font-size="10.5" fill="#243B4A" text-anchor="middle">câu trả lời</text>
<line x1="620.0" y1="608.0" x2="360.0" y2="608.0" stroke="#8A98A8" stroke-width="1.6" stroke-dasharray="6 4" marker-end="url(#arr_8A98A8)"/>
<text x="490.0" y="602.0" font-size="10.5" fill="#243B4A" text-anchor="middle">{answer, sources, engine_used}</text>
<line x1="360.0" y1="654.0" x2="1280.0" y2="654.0" stroke="#5A5A5A" stroke-width="1.6" marker-end="url(#arr_5A5A5A)"/>
<text x="820.0" y="648.0" font-size="10.5" fill="#243B4A" text-anchor="middle">add_message(lượt trợ lý + sources JSON)</text>
<line x1="360.0" y1="702.0" x2="120.0" y2="702.0" stroke="#8A98A8" stroke-width="1.6" stroke-dasharray="6 4" marker-end="url(#arr_8A98A8)"/>
<text x="240.0" y="696.0" font-size="10.5" fill="#243B4A" text-anchor="middle">{answer, sources, conversation_id}</text>
</svg>