<?xml version="1.0" encoding="UTF-8"?>
<svg xmlns="http://www.w3.org/2000/svg" width="1320" height="560" viewBox="0 0 1320 560" font-family="Helvetica, Arial, sans-serif">
<defs>
<marker id="arr_445" markerWidth="11" markerHeight="11" refX="8.5" refY="3.2" orient="auto" markerUnits="userSpaceOnUse"><path d="M0,0 L9,3.2 L0,6.4 Z" fill="#445"/></marker>
</defs>
<rect x="0" y="0" width="1320" height="560" fill="#FFFFFF"/>
<text x="40" y="40" font-size="22" font-weight="700" fill="#10202E">2 · Quy trình xử lý OCR</text>
<line x1="40" y1="50" x2="1280" y2="50" stroke="#10202E" stroke-width="1.5"/>
<path d="M250.0,140.0 L300.0,140.0" fill="none" stroke="#445" stroke-width="1.7" marker-end="url(#arr_445)"/>
<path d="M475.0,140.0 L525.0,140.0" fill="none" stroke="#445" stroke-width="1.7" marker-end="url(#arr_445)"/>
<path d="M720.0,140.0 L770.0,140.0" fill="none" stroke="#445" stroke-width="1.7" marker-end="url(#arr_445)"/>
<path d="M965.0,140.0 L1015.0,140.0" fill="none" stroke="#445" stroke-width="1.7" marker-end="url(#arr_445)"/>
<path d="M1142.5,170.0 L1160.0,250.0" fill="none" stroke="#445" stroke-width="1.7" marker-end="url(#arr_445)"/>
<path d="M1090.0,290.0 L1035.0,288.4" fill="none" stroke="#445" stroke-width="1.7" marker-end="url(#arr_445)"/>
<rect x="1043.5" y="280.2" width="38.0" height="16" rx="3" fill="#FFFFFF" stroke="#445" stroke-width="0.8" opacity="0.95"/>
<text x="1062.5" y="291.7" font-size="10.5" fill="#243B4A" text-anchor="middle">không</text>
<path d="M820.0,287.0 L730.0,290.0" fill="none" stroke="#445" stroke-width="1.7" marker-end="url(#arr_445)"/>
<path d="M1160.0,330.0 L1160.0,360.0 L665.0,360.0 L665.0,330.0" fill="none" stroke="#445" stroke-width="1.7" stroke-dasharray="6 5" marker-end="url(#arr_445)"/>
<rect x="860.5" y="351.0" width="104.0" height="16" rx="3" fill="#FFFFFF" stroke="#445" stroke-width="0.8" opacity="0.95"/>
<text x="912.5" y="362.5" font-size="10.5" fill="#243B4A" text-anchor="middle">có (Modern, GLM)</text>
<path d="M600.0,290.0 L545.0,290.0" fill="none" stroke="#445" stroke-width="1.7" marker-end="url(#arr_445)"/>
<rect x="562.5" y="281.0" width="20.0" height="16" rx="3" fill="#FFFFFF" stroke="#445" stroke-width="0.8" opacity="0.95"/>
<text x="572.5" y="292.5" font-size="10.5" fill="#243B4A" text-anchor="middle">có</text>
<path d="M437.5,322.0 L437.0,380.0 L565.0,410.0" fill="none" stroke="#445" stroke-width="1.7" marker-end="url(#arr_445)"/>
<rect x="462.8" y="379.4" width="20.0" height="16" rx="3" fill="#FFFFFF" stroke="#445" stroke-width="0.8" opacity="0.95"/>
<text x="472.8" y="390.9" font-size="10.5" fill="#243B4A" text-anchor="middle">có</text>
<path d="M665.0,330.0 L665.0,470.0 L660.0,470.0 L565.0,410.0" fill="none" stroke="#445" stroke-width="1.7" marker-end="url(#arr_445)"/>
<rect x="646.0" y="449.7" width="38.0" height="16" rx="3" fill="#FFFFFF" stroke="#445" stroke-width="0.8" opacity="0.95"/>
<text x="665.0" y="461.2" font-size="10.5" fill="#243B4A" text-anchor="middle">không</text>
<path d="M330.0,449.0 L290.0,443.0" fill="none" stroke="#445" stroke-width="1.7" marker-end="url(#arr_445)"/>
<path d="M175.0,410.0 L175.0,370.0" fill="none" stroke="#445" stroke-width="1.7" marker-end="url(#arr_445)"/>
<path d="M800.0,449.0 L850.0,443.0" fill="none" stroke="#445" stroke-width="1.7" marker-end="url(#arr_445)"/>
<rect x="50.0" y="110.0" width="200.0" height="60.0" rx="9" fill="#DAE8FC" stroke="#6C8EBF" stroke-width="1.6"/>
<text x="150.0" y="130.0" font-size="11.0" font-weight="400" fill="#15202B" text-anchor="middle">POST /api/upload</text>
<text x="150.0" y="143.4" font-size="11.0" font-weight="400" fill="#15202B" text-anchor="middle">tên file UUID · allowlist đuôi</text>
<text x="150.0" y="156.8" font-size="11.0" font-weight="400" fill="#15202B" text-anchor="middle">file</text>
<rect x="300.0" y="110.0" width="175.0" height="60.0" rx="9" fill="#EDEDED" stroke="#5A5A5A" stroke-width="1.6"/>
<text x="387.5" y="136.2" font-size="12.5" font-weight="400" fill="#15202B" text-anchor="middle">Bản ghi Document</text>
<text x="387.5" y="151.5" font-size="12.5" font-weight="400" fill="#15202B" text-anchor="middle">status = uploaded</text>
<rect x="525.0" y="110.0" width="195.0" height="60.0" rx="9" fill="#D4E1F5" stroke="#3F61A8" stroke-width="1.6"/>
<text x="622.5" y="136.7" font-size="11.0" font-weight="400" fill="#15202B" text-anchor="middle">POST /api/ocr/all</text>
<text x="622.5" y="150.1" font-size="11.0" font-weight="400" fill="#15202B" text-anchor="middle">hoặc /api/ocr/page</text>
<rect x="770.0" y="110.0" width="195.0" height="60.0" rx="9" fill="#F8CECC" stroke="#B85450" stroke-width="1.6"/>
<text x="867.5" y="136.7" font-size="11.0" font-weight="400" fill="#15202B" text-anchor="middle">_resolve_owned_file</text>
<text x="867.5" y="150.1" font-size="11.0" font-weight="400" fill="#15202B" text-anchor="middle">kiểm tra sở hữu / chống IDOR</text>
<rect x="1015.0" y="110.0" width="255.0" height="60.0" rx="9" fill="#B0E3E6" stroke="#0E8088" stroke-width="1.6"/>
<text x="1142.5" y="136.8" font-size="10.5" font-weight="400" fill="#15202B" text-anchor="middle">Engine OCR qua router</text>
<text x="1142.5" y="149.7" font-size="10.5" font-weight="400" fill="#15202B" text-anchor="middle">Legacy / Modern / VietOCR / GLM</text>
<polygon points="1160.0,250.0 1230.0,290.0 1160.0,330.0 1090.0,290.0" fill="#FFF2CC" stroke="#D6B656" stroke-width="1.6"/>
<text x="1160.0" y="293.4" font-size="11.0" font-weight="400" fill="#15202B" text-anchor="middle">layout_native?</text>
<rect x="820.0" y="252.0" width="215.0" height="70.0" rx="9" fill="#B0E3E6" stroke="#0E8088" stroke-width="1.6"/>
<text x="927.5" y="277.4" font-size="10.5" font-weight="400" fill="#15202B" text-anchor="middle">geometry / layout</text>
<text x="927.5" y="290.3" font-size="10.5" font-weight="400" fill="#15202B" text-anchor="middle">khôi phục thứ tự đọc</text>
<text x="927.5" y="303.1" font-size="10.5" font-weight="400" fill="#15202B" text-anchor="middle">(Legacy, VietOCR)</text>
<polygon points="665.0,250.0 730.0,290.0 665.0,330.0 600.0,290.0" fill="#FFF2CC" stroke="#D6B656" stroke-width="1.6"/>
<text x="665.0" y="293.4" font-size="11.0" font-weight="400" fill="#15202B" text-anchor="middle">apply_ai?</text>
<rect x="330.0" y="258.0" width="215.0" height="64.0" rx="9" fill="#B0E3E6" stroke="#0E8088" stroke-width="1.6"/>
<text x="437.5" y="280.9" font-size="10.0" font-weight="400" fill="#15202B" text-anchor="middle">Dọn dòng bằng Qwen</text>
<text x="437.5" y="293.1" font-size="10.0" font-weight="400" fill="#15202B" text-anchor="middle">(chế độ smart · có cổng an toàn ·</text>
<text x="437.5" y="305.3" font-size="10.0" font-weight="400" fill="#15202B" text-anchor="middle">chỉ text)</text>
<rect x="330.0" y="410.0" width="470.0" height="78.0" rx="9" fill="#EDEDED" stroke="#5A5A5A" stroke-width="1.6"/>
<text x="565.0" y="445.9" font-size="10.5" font-weight="400" fill="#15202B" text-anchor="middle">save_artifact (document_artifacts)</text>
<text x="565.0" y="458.7" font-size="10.5" font-weight="400" fill="#15202B" text-anchor="middle">ocr · ocr_layout · ocr_markdown/html/tables/blocks/json/images</text>
<rect x="60.0" y="410.0" width="230.0" height="66.0" rx="9" fill="#D5E8D4" stroke="#82B366" stroke-width="1.6"/>
<text x="175.0" y="439.7" font-size="11.0" font-weight="400" fill="#15202B" text-anchor="middle">index_document_async</text>
<text x="175.0" y="453.1" font-size="11.0" font-weight="400" fill="#15202B" text-anchor="middle">văn bản &quot;ocr&quot; chuẩn</text>
<rect x="60.0" y="314.0" width="230.0" height="56.0" rx="9" fill="#D5E8D4" stroke="#82B366" stroke-width="1.6"/>
<text x="175.0" y="345.4" font-size="11.0" font-weight="400" fill="#15202B" text-anchor="middle">Chỉ mục RAG trong bộ nhớ</text>
<rect x="850.0" y="410.0" width="410.0" height="66.0" rx="9" fill="#DAE8FC" stroke="#6C8EBF" stroke-width="1.6"/>
<text x="1055.0" y="439.9" font-size="10.5" font-weight="400" fill="#15202B" text-anchor="middle">Thư viện tài liệu</text>
<text x="1055.0" y="452.7" font-size="10.5" font-weight="400" fill="#15202B" text-anchor="middle">GET /api/documents (nhãn artifact_kinds)</text>
</svg>