<?xml version="1.0" encoding="UTF-8"?>
<svg xmlns="http://www.w3.org/2000/svg" width="1320" height="560" viewBox="0 0 1320 560" font-family="Helvetica, Arial, sans-serif">
<defs>
<marker id="arr_445" markerWidth="11" markerHeight="11" refX="8.5" refY="3.2" orient="auto" markerUnits="userSpaceOnUse"><path d="M0,0 L9,3.2 L0,6.4 Z" fill="#445"/></marker>
<marker id="arr_9AA7B5" markerWidth="11" markerHeight="11" refX="8.5" refY="3.2" orient="auto" markerUnits="userSpaceOnUse"><path d="M0,0 L9,3.2 L0,6.4 Z" fill="#9AA7B5"/></marker>
</defs>
<rect x="0" y="0" width="1320" height="560" fill="#FFFFFF"/>
<text x="40" y="40" font-size="22" font-weight="700" fill="#10202E">16 · Luồng dịch thuật</text>
<line x1="40" y1="50" x2="1280" y2="50" stroke="#10202E" stroke-width="1.5"/>
<path d="M300.0,138.0 L350.0,180.0" fill="none" stroke="#445" stroke-width="1.7" marker-end="url(#arr_445)"/>
<path d="M300.0,230.0 L350.0,180.0" fill="none" stroke="#445" stroke-width="1.7" marker-end="url(#arr_445)"/>
<path d="M495.0,210.0 L495.0,254.0" fill="none" stroke="#445" stroke-width="1.7" marker-end="url(#arr_445)"/>
<path d="M640.0,180.0 L690.0,190.0" fill="none" stroke="#445" stroke-width="1.7" marker-end="url(#arr_445)"/>
<path d="M765.0,230.0 L765.0,320.0" fill="none" stroke="#445" stroke-width="1.7" marker-end="url(#arr_445)"/>
<rect x="749.0" y="266.0" width="32.0" height="16" rx="3" fill="#FFFFFF" stroke="#445" stroke-width="0.8" opacity="0.95"/>
<text x="765.0" y="277.5" font-size="10.5" fill="#243B4A" text-anchor="middle">auto</text>
<path d="M840.0,190.0 L900.0,190.0 L900.0,128.0 L980.0,128.0" fill="none" stroke="#445" stroke-width="1.7" marker-end="url(#arr_445)"/>
<rect x="878.0" y="140.0" width="44.0" height="16" rx="3" fill="#FFFFFF" stroke="#445" stroke-width="0.8" opacity="0.95"/>
<text x="900.0" y="151.5" font-size="10.5" fill="#243B4A" text-anchor="middle">online</text>
<path d="M840.0,190.0 L880.0,190.0 L880.0,350.0 L980.0,350.0" fill="none" stroke="#9AA7B5" stroke-width="1.7" marker-end="url(#arr_9AA7B5)"/>
<rect x="855.0" y="291.0" width="50.0" height="16" rx="3" fill="#FFFFFF" stroke="#9AA7B5" stroke-width="0.8" opacity="0.95"/>
<text x="880.0" y="302.5" font-size="10.5" fill="#243B4A" text-anchor="middle">offline</text>
<path d="M840.0,360.0 L930.0,360.0 L930.0,128.0 L980.0,128.0" fill="none" stroke="#445" stroke-width="1.7" marker-end="url(#arr_445)"/>
<rect x="920.0" y="255.0" width="20.0" height="16" rx="3" fill="#FFFFFF" stroke="#445" stroke-width="0.8" opacity="0.95"/>
<text x="930.0" y="266.5" font-size="10.5" fill="#243B4A" text-anchor="middle">có</text>
<path d="M840.0,360.0 L980.0,350.0" fill="none" stroke="#445" stroke-width="1.7" marker-end="url(#arr_445)"/>
<rect x="891.0" y="346.0" width="38.0" height="16" rx="3" fill="#FFFFFF" stroke="#445" stroke-width="0.8" opacity="0.95"/>
<text x="910.0" y="357.5" font-size="10.5" fill="#243B4A" text-anchor="middle">không</text>
<path d="M980.0,128.0 L955.0,128.0 L955.0,485.0 L980.0,485.0" fill="none" stroke="#445" stroke-width="1.7" marker-end="url(#arr_445)"/>
<path d="M1130.0,380.0 L1130.0,460.0" fill="none" stroke="#445" stroke-width="1.7" marker-end="url(#arr_445)"/>
<rect x="50.0" y="110.0" width="250.0" height="56.0" rx="9" fill="#D4E1F5" stroke="#3F61A8" stroke-width="1.6"/>
<text x="175.0" y="135.0" font-size="10.0" font-weight="400" fill="#15202B" text-anchor="middle">POST /api/translate</text>
<text x="175.0" y="147.2" font-size="10.0" font-weight="400" fill="#15202B" text-anchor="middle">(+ GET /api/translate/status)</text>
<rect x="50.0" y="205.0" width="250.0" height="50.0" rx="9" fill="#E1D5E7" stroke="#9673A6" stroke-width="1.6"/>
<text x="175.0" y="226.8" font-size="10.5" font-weight="400" fill="#15202B" text-anchor="middle">Agent: tool translate</text>
<text x="175.0" y="239.7" font-size="10.5" font-weight="400" fill="#15202B" text-anchor="middle">(TranslateTool)</text>
<rect x="350.0" y="150.0" width="290.0" height="60.0" rx="9" fill="#FFE6CC" stroke="#D79B00" stroke-width="1.6"/>
<text x="495.0" y="177.0" font-size="10.0" font-weight="700" fill="#15202B" text-anchor="middle">translate_service.translate(</text>
<text x="495.0" y="189.2" font-size="10.0" font-weight="700" fill="#15202B" text-anchor="middle">text, from_lang, to_lang, engine)</text>
<rect x="360.0" y="254.0" width="270.0" height="46.0" rx="9" fill="#FFE6CC" stroke="#D79B00" stroke-width="1.6"/>
<text x="495.0" y="274.2" font-size="9.5" font-weight="400" fill="#15202B" text-anchor="middle">nhận diện ngôn ngữ (langdetect)</text>
<text x="495.0" y="285.7" font-size="9.5" font-weight="400" fill="#15202B" text-anchor="middle">from_lang = auto</text>
<polygon points="765.0,150.0 840.0,190.0 765.0,230.0 690.0,190.0" fill="#FFF2CC" stroke="#D6B656" stroke-width="1.6"/>
<text x="765.0" y="193.4" font-size="11.0" font-weight="400" fill="#15202B" text-anchor="middle">engine?</text>
<polygon points="765.0,320.0 840.0,360.0 765.0,400.0 690.0,360.0" fill="#FFF2CC" stroke="#D6B656" stroke-width="1.6"/>
<text x="765.0" y="357.0" font-size="10.0" font-weight="400" fill="#15202B" text-anchor="middle">online</text>
<text x="765.0" y="369.2" font-size="10.0" font-weight="400" fill="#15202B" text-anchor="middle">truy cập được?</text>
<rect x="980.0" y="100.0" width="300.0" height="56.0" rx="9" fill="#FFE6CC" stroke="#D79B00" stroke-width="1.6"/>
<text x="1130.0" y="124.7" font-size="11.0" font-weight="400" fill="#15202B" text-anchor="middle">Google Translate</text>
<text x="1130.0" y="138.1" font-size="11.0" font-weight="400" fill="#15202B" text-anchor="middle">(deep_translator)</text>
<rect x="980.0" y="320.0" width="300.0" height="60.0" rx="9" fill="#FFE6CC" stroke="#D79B00" stroke-width="1.6"/>
<text x="1130.0" y="347.2" font-size="9.5" font-weight="400" fill="#15202B" text-anchor="middle">Argos Translate / CTranslate2</text>
<text x="1130.0" y="358.7" font-size="9.5" font-weight="400" fill="#15202B" text-anchor="middle">(offline · đã vá Stanza)</text>
<rect x="980.0" y="460.0" width="300.0" height="50.0" rx="9" fill="#EDEDED" stroke="#5A5A5A" stroke-width="1.6"/>
<text x="1130.0" y="488.1" font-size="10.0" font-weight="400" fill="#15202B" text-anchor="middle">kết quả {translated, to_lang, engine}</text>
<rect x="350.0" y="340.0" width="270.0" height="56.0" rx="9" fill="#F5F5F5" stroke="#999999" stroke-width="1.6"/>
<text x="485.0" y="365.3" font-size="9.0" font-weight="400" fill="#15202B" text-anchor="middle">engine=auto: thử online nếu truy cập được,</text>
<text x="485.0" y="376.3" font-size="9.0" font-weight="400" fill="#15202B" text-anchor="middle">không thì offline · KHÔNG fallback giữa chừng</text>
</svg>